<?xml version="1.0" encoding="UTF-8" standalone="no"?>
<!-- Created with Inkscape (http://www.inkscape.org/) -->

<svg
   xmlns:dc="http://purl.org/dc/elements/1.1/"
   xmlns:cc="http://creativecommons.org/ns#"
   xmlns:rdf="http://www.w3.org/1999/02/22-rdf-syntax-ns#"
   xmlns:svg="http://www.w3.org/2000/svg"
   xmlns="http://www.w3.org/2000/svg"
   xmlns:sodipodi="http://sodipodi.sourceforge.net/DTD/sodipodi-0.dtd"
   xmlns:inkscape="http://www.inkscape.org/namespaces/inkscape"
   width="210mm"
   height="297mm"
   viewBox="0 0 210 297"
   version="1.1"
   id="svg8"
   inkscape:version="0.92.3 (2405546, 2018-03-11)"
   sodipodi:docname="diffusion_image.svg">
  <defs
     id="defs2">
    <marker
       inkscape:stockid="Arrow1Send"
       orient="auto"
       refY="0.0"
       refX="0.0"
       id="Arrow1Send"
       style="overflow:visible;"
       inkscape:isstock="true">
      <path
         id="path930"
         d="M 0.0,0.0 L 5.0,-5.0 L -12.5,0.0 L 5.0,5.0 L 0.0,0.0 z "
         style="fill-rule:evenodd;stroke:#000000;stroke-width:1pt;stroke-opacity:1;fill:#000000;fill-opacity:1"
         transform="scale(0.2) rotate(180) translate(6,0)" />
    </marker>
    <marker
       inkscape:stockid="Arrow2Mend"
       orient="auto"
       refY="0.0"
       refX="0.0"
       id="Arrow2Mend"
       style="overflow:visible;"
       inkscape:isstock="true">
      <path
         id="path942"
         style="fill-rule:evenodd;stroke-width:0.625;stroke-linejoin:round;stroke:#000000;stroke-opacity:1;fill:#000000;fill-opacity:1"
         d="M 8.7185878,4.0337352 L -2.2072895,0.016013256 L 8.7185884,-4.0017078 C 6.9730900,-1.6296469 6.9831476,1.6157441 8.7185878,4.0337352 z "
         transform="scale(0.6) rotate(180) translate(0,0)" />
    </marker>
    <marker
       inkscape:stockid="Arrow1Lend"
       orient="auto"
       refY="0.0"
       refX="0.0"
       id="Arrow1Lend"
       style="overflow:visible;"
       inkscape:isstock="true">
      <path
         id="path918"
         d="M 0.0,0.0 L 5.0,-5.0 L -12.5,0.0 L 5.0,5.0 L 0.0,0.0 z "
         style="fill-rule:evenodd;stroke:#000000;stroke-width:1pt;stroke-opacity:1;fill:#000000;fill-opacity:1"
         transform="scale(0.8) rotate(180) translate(12.5,0)" />
    </marker>
  </defs>
  <sodipodi:namedview
     id="base"
     pagecolor="#ffffff"
     bordercolor="#666666"
     borderopacity="1.0"
     inkscape:pageopacity="0.0"
     inkscape:pageshadow="2"
     inkscape:zoom="2.4663209"
     inkscape:cx="441.64077"
     inkscape:cy="582.49047"
     inkscape:document-units="mm"
     inkscape:current-layer="layer1"
     showgrid="false"
     inkscape:window-width="1920"
     inkscape:window-height="1025"
     inkscape:window-x="1200"
     inkscape:window-y="541"
     inkscape:window-maximized="1" />
  <metadata
     id="metadata5">
    <rdf:RDF>
      <cc:Work
         rdf:about="">
        <dc:format>image/svg+xml</dc:format>
        <dc:type
           rdf:resource="http://purl.org/dc/dcmitype/StillImage" />
        <dc:title />
      </cc:Work>
    </rdf:RDF>
  </metadata>
  <g
     inkscape:label="レイヤー 1"
     inkscape:groupmode="layer"
     id="layer1">
    <path
       style="opacity:1;fill:#00b5ff;fill-opacity:1;stroke:#00b5ff;stroke-width:0.26499999;stroke-linecap:round;stroke-linejoin:round;stroke-miterlimit:4;stroke-dasharray:none;stroke-dashoffset:0;stroke-opacity:1"
       id="path819"
       sodipodi:type="arc"
       sodipodi:cx="131.18542"
       sodipodi:cy="107.86911"
       sodipodi:rx="0.40000001"
       sodipodi:ry="0.40000001"
       sodipodi:start="0.0038682605"
       sodipodi:end="0.001736257"
       sodipodi:open="true"
       d="m 131.58542,107.87066 a 0.40000001,0.40000001 0 0 1 -0.40133,0.39845 0.40000001,0.40000001 0 0 1 -0.39866,-0.40112 0.40000001,0.40000001 0 0 1 0.4009,-0.39888 0.40000001,0.40000001 0 0 1 0.39909,0.40069" />
    <path
       style="opacity:1;fill:#00b5ff;fill-opacity:1;stroke:#00b5ff;stroke-width:0.26499999;stroke-linecap:round;stroke-linejoin:round;stroke-miterlimit:4;stroke-dasharray:none;stroke-dashoffset:0;stroke-opacity:1"
       id="path819-3"
       sodipodi:type="arc"
       sodipodi:cx="125.9146"
       sodipodi:cy="129.66626"
       sodipodi:rx="0.40000001"
       sodipodi:ry="0.40000001"
       sodipodi:start="0.0038682605"
       sodipodi:end="0.001736257"
       sodipodi:open="true"
       d="m 126.31459,129.66781 a 0.40000001,0.40000001 0 0 1 -0.40133,0.39845 0.40000001,0.40000001 0 0 1 -0.39866,-0.40112 0.40000001,0.40000001 0 0 1 0.4009,-0.39888 0.40000001,0.40000001 0 0 1 0.3991,0.40069" />
    <path
       style="opacity:1;fill:#00b5ff;fill-opacity:1;stroke:#00b5ff;stroke-width:0.26499999;stroke-linecap:round;stroke-linejoin:round;stroke-miterlimit:4;stroke-dasharray:none;stroke-dashoffset:0;stroke-opacity:1"
       id="path819-6"
       sodipodi:type="arc"
       sodipodi:cx="130.76834"
       sodipodi:cy="129.38274"
       sodipodi:rx="0.40000001"
       sodipodi:ry="0.40000001"
       sodipodi:start="0.0038682605"
       sodipodi:end="0.001736257"
       sodipodi:open="true"
       d="m 131.16834,129.38428 a 0.40000001,0.40000001 0 0 1 -0.40133,0.39845 0.40000001,0.40000001 0 0 1 -0.39867,-0.40111 0.40000001,0.40000001 0 0 1 0.40091,-0.39888 0.40000001,0.40000001 0 0 1 0.39909,0.40069" />
    <path
       style="opacity:1;fill:#00b5ff;fill-opacity:1;stroke:#00b5ff;stroke-width:0.26499999;stroke-linecap:round;stroke-linejoin:round;stroke-miterlimit:4;stroke-dasharray:none;stroke-dashoffset:0;stroke-opacity:1"
       id="path819-7"
       sodipodi:type="arc"
       sodipodi:cx="135.37158"
       sodipodi:cy="129.11119"
       sodipodi:rx="0.40000001"
       sodipodi:ry="0.40000001"
       sodipodi:start="0.0038682605"
       sodipodi:end="0.001736257"
       sodipodi:open="true"
       d="m 135.77158,129.11274 a 0.40000001,0.40000001 0 0 1 -0.40133,0.39845 0.40000001,0.40000001 0 0 1 -0.39867,-0.40112 0.40000001,0.40000001 0 0 1 0.40091,-0.39888 0.40000001,0.40000001 0 0 1 0.39909,0.4007" />
    <path
       style="opacity:1;fill:#00b5ff;fill-opacity:1;stroke:#00b5ff;stroke-width:0.26499999;stroke-linecap:round;stroke-linejoin:round;stroke-miterlimit:4;stroke-dasharray:none;stroke-dashoffset:0;stroke-opacity:1"
       id="path819-5"
       sodipodi:type="arc"
       sodipodi:cx="130.22079"
       sodipodi:cy="107.71166"
       sodipodi:rx="0.40000001"
       sodipodi:ry="0.40000001"
       sodipodi:start="0.0038682605"
       sodipodi:end="0.001736257"
       sodipodi:open="true"
       d="m 130.62079,107.71321 a 0.40000001,0.40000001 0 0 1 -0.40133,0.39845 0.40000001,0.40000001 0 0 1 -0.39866,-0.40112 0.40000001,0.40000001 0 0 1 0.4009,-0.39888 0.40000001,0.40000001 0 0 1 0.39909,0.4007" />
    <path
       style="opacity:1;fill:#00b5ff;fill-opacity:1;stroke:#00b5ff;stroke-width:0.26499999;stroke-linecap:round;stroke-linejoin:round;stroke-miterlimit:4;stroke-dasharray:none;stroke-dashoffset:0;stroke-opacity:1"
       id="path819-35"
       sodipodi:type="arc"
       sodipodi:cx="130.69136"
       sodipodi:cy="106.76324"
       sodipodi:rx="0.40000001"
       sodipodi:ry="0.40000001"
       sodipodi:start="0.0038682605"
       sodipodi:end="0.001736257"
       sodipodi:open="true"
       d="m 131.09136,106.76478 a 0.40000001,0.40000001 0 0 1 -0.40133,0.39845 0.40000001,0.40000001 0 0 1 -0.39867,-0.40111 0.40000001,0.40000001 0 0 1 0.40091,-0.39888 0.40000001,0.40000001 0 0 1 0.39909,0.40069" />
    <path
       style="opacity:1;fill:#00b5ff;fill-opacity:1;stroke:#00b5ff;stroke-width:0.26499999;stroke-linecap:round;stroke-linejoin:round;stroke-miterlimit:4;stroke-dasharray:none;stroke-dashoffset:0;stroke-opacity:1"
       id="path819-62"
       sodipodi:type="arc"
       sodipodi:cx="123.63037"
       sodipodi:cy="153.47215"
       sodipodi:rx="0.40000001"
       sodipodi:ry="0.40000001"
       sodipodi:start="0.0038682605"
       sodipodi:end="0.001736257"
       sodipodi:open="true"
       d="m 124.03037,153.4737 a 0.40000001,0.40000001 0 0 1 -0.40133,0.39845 0.40000001,0.40000001 0 0 1 -0.39867,-0.40112 0.40000001,0.40000001 0 0 1 0.40091,-0.39888 0.40000001,0.40000001 0 0 1 0.39909,0.4007" />
    <path
       style="opacity:1;fill:#00b5ff;fill-opacity:1;stroke:#00b5ff;stroke-width:0.26499999;stroke-linecap:round;stroke-linejoin:round;stroke-miterlimit:4;stroke-dasharray:none;stroke-dashoffset:0;stroke-opacity:1"
       id="path819-9"
       sodipodi:type="arc"
       sodipodi:cx="131.00325"
       sodipodi:cy="153.05063"
       sodipodi:rx="0.40000001"
       sodipodi:ry="0.40000001"
       sodipodi:start="0.0038682605"
       sodipodi:end="0.001736257"
       sodipodi:open="true"
       d="m 131.40325,153.05218 a 0.40000001,0.40000001 0 0 1 -0.40133,0.39845 0.40000001,0.40000001 0 0 1 -0.39867,-0.40112 0.40000001,0.40000001 0 0 1 0.40091,-0.39888 0.40000001,0.40000001 0 0 1 0.39909,0.40069" />
    <path
       style="opacity:1;fill:#00b5ff;fill-opacity:1;stroke:#00b5ff;stroke-width:0.26499999;stroke-linecap:round;stroke-linejoin:round;stroke-miterlimit:4;stroke-dasharray:none;stroke-dashoffset:0;stroke-opacity:1"
       id="path819-1"
       sodipodi:type="arc"
       sodipodi:cx="138.20465"
       sodipodi:cy="153.25269"
       sodipodi:rx="0.40000001"
       sodipodi:ry="0.40000001"
       sodipodi:start="0.0038682605"
       sodipodi:end="0.001736257"
       sodipodi:open="true"
       d="m 138.60465,153.25423 a 0.40000001,0.40000001 0 0 1 -0.40133,0.39845 0.40000001,0.40000001 0 0 1 -0.39867,-0.40112 0.40000001,0.40000001 0 0 1 0.40091,-0.39887 0.40000001,0.40000001 0 0 1 0.39909,0.40069" />
    <path
       style="fill:none;stroke:#000000;stroke-width:0.26499999;stroke-linecap:butt;stroke-linejoin:miter;stroke-miterlimit:4;stroke-dasharray:0.26499999, 0.52999997;stroke-dashoffset:0;stroke-opacity:1"
       d="m 130.16624,105.66246 c -6.41643,21.37602 -8.08056,51.3302 -8.08056,51.3302"
       id="path878"
       inkscape:connector-curvature="0" />
    <path
       style="fill:none;stroke:#000000;stroke-width:0.2645953;stroke-linecap:butt;stroke-linejoin:miter;stroke-miterlimit:4;stroke-dasharray:0.26459529, 0.52919057;stroke-dashoffset:0;stroke-opacity:1"
       d="m 139.34795,156.99266 c 0,0 -1.66422,-29.95519 -8.08102,-51.33194"
       id="path878-2"
       inkscape:connector-curvature="0" />
    <path
       style="fill:none;stroke:#000000;stroke-width:0.76499999;stroke-linecap:butt;stroke-linejoin:miter;stroke-miterlimit:4;stroke-dasharray:none;stroke-opacity:1;marker-end:url(#Arrow1Send)"
       d="m 143.44272,119.88568 v 18.73687"
       id="path913"
       inkscape:connector-curvature="0" />
    <text
       xml:space="preserve"
       style="font-style:normal;font-weight:normal;font-size:10.58333302px;line-height:1.25;font-family:sans-serif;letter-spacing:0px;word-spacing:0px;fill:#000000;fill-opacity:1;stroke:none;stroke-width:0.26458332"
       x="125.34631"
       y="-145.24858"
       id="text1305"
       transform="rotate(90)"><tspan
         sodipodi:role="line"
         id="tspan1303"
         x="125.34631"
         y="-145.24858"
         style="font-style:normal;font-variant:normal;font-weight:normal;font-stretch:normal;font-size:4.93888903px;font-family:'TeX Gyre Termes';-inkscape-font-specification:'TeX Gyre Termes';stroke-width:0.26458332">drift</tspan></text>
    <path
       style="opacity:1;fill:#00b5ff;fill-opacity:1;stroke:#00b5ff;stroke-width:0.26499999;stroke-linecap:round;stroke-linejoin:round;stroke-miterlimit:4;stroke-dasharray:none;stroke-dashoffset:0;stroke-opacity:1"
       id="path819-18"
       sodipodi:type="arc"
       sodipodi:cx="157.6046"
       sodipodi:cy="107.46742"
       sodipodi:rx="0.40000001"
       sodipodi:ry="0.40000001"
       sodipodi:start="0.0038682605"
       sodipodi:end="0.001736257"
       sodipodi:open="true"
       d="m 158.0046,107.46897 a 0.40000001,0.40000001 0 0 1 -0.40134,0.39845 0.40000001,0.40000001 0 0 1 -0.39866,-0.40112 0.40000001,0.40000001 0 0 1 0.40091,-0.39888 0.40000001,0.40000001 0 0 1 0.39909,0.4007" />
    <path
       style="opacity:1;fill:#00b5ff;fill-opacity:1;stroke:#00b5ff;stroke-width:0.26499999;stroke-linecap:round;stroke-linejoin:round;stroke-miterlimit:4;stroke-dasharray:none;stroke-dashoffset:0;stroke-opacity:1"
       id="path819-3-5"
       sodipodi:type="arc"
       sodipodi:cx="157.08202"
       sodipodi:cy="129.46864"
       sodipodi:rx="0.40000001"
       sodipodi:ry="0.40000001"
       sodipodi:start="0.0038682605"
       sodipodi:end="0.001736257"
       sodipodi:open="true"
       d="m 157.48201,129.47019 a 0.40000001,0.40000001 0 0 1 -0.40133,0.39845 0.40000001,0.40000001 0 0 1 -0.39866,-0.40112 0.40000001,0.40000001 0 0 1 0.4009,-0.39888 0.40000001,0.40000001 0 0 1 0.3991,0.4007" />
    <path
       style="opacity:1;fill:#00b5ff;fill-opacity:1;stroke:#00b5ff;stroke-width:0.26499999;stroke-linecap:round;stroke-linejoin:round;stroke-miterlimit:4;stroke-dasharray:none;stroke-dashoffset:0;stroke-opacity:1"
       id="path819-6-9"
       sodipodi:type="arc"
       sodipodi:cx="154.82855"
       sodipodi:cy="129.18512"
       sodipodi:rx="0.40000001"
       sodipodi:ry="0.40000001"
       sodipodi:start="0.0038682605"
       sodipodi:end="0.001736257"
       sodipodi:open="true"
       d="m 155.22855,129.18667 a 0.40000001,0.40000001 0 0 1 -0.40133,0.39845 0.40000001,0.40000001 0 0 1 -0.39867,-0.40112 0.40000001,0.40000001 0 0 1 0.40091,-0.39888 0.40000001,0.40000001 0 0 1 0.39909,0.40069" />
    <path
       style="opacity:1;fill:#00b5ff;fill-opacity:1;stroke:#00b5ff;stroke-width:0.26499999;stroke-linecap:round;stroke-linejoin:round;stroke-miterlimit:4;stroke-dasharray:none;stroke-dashoffset:0;stroke-opacity:1"
       id="path819-7-7"
       sodipodi:type="arc"
       sodipodi:cx="159.45862"
       sodipodi:cy="129.18178"
       sodipodi:rx="0.40000001"
       sodipodi:ry="0.40000001"
       sodipodi:start="0.0038682605"
       sodipodi:end="0.001736257"
       sodipodi:open="true"
       d="m 159.85862,129.18333 a 0.40000001,0.40000001 0 0 1 -0.40134,0.39845 0.40000001,0.40000001 0 0 1 -0.39866,-0.40112 0.40000001,0.40000001 0 0 1 0.40091,-0.39888 0.40000001,0.40000001 0 0 1 0.39909,0.40069" />
    <path
       style="opacity:1;fill:#00b5ff;fill-opacity:1;stroke:#00b5ff;stroke-width:0.26499999;stroke-linecap:round;stroke-linejoin:round;stroke-miterlimit:4;stroke-dasharray:none;stroke-dashoffset:0;stroke-opacity:1"
       id="path819-5-5"
       sodipodi:type="arc"
       sodipodi:cx="156.63997"
       sodipodi:cy="107.30998"
       sodipodi:rx="0.40000001"
       sodipodi:ry="0.40000001"
       sodipodi:start="0.0038682605"
       sodipodi:end="0.001736257"
       sodipodi:open="true"
       d="m 157.03997,107.31153 a 0.40000001,0.40000001 0 0 1 -0.40134,0.39845 0.40000001,0.40000001 0 0 1 -0.39866,-0.40112 0.40000001,0.40000001 0 0 1 0.40091,-0.39888 0.40000001,0.40000001 0 0 1 0.39909,0.4007" />
    <path
       style="opacity:1;fill:#00b5ff;fill-opacity:1;stroke:#00b5ff;stroke-width:0.26499999;stroke-linecap:round;stroke-linejoin:round;stroke-miterlimit:4;stroke-dasharray:none;stroke-dashoffset:0;stroke-opacity:1"
       id="path819-35-3"
       sodipodi:type="arc"
       sodipodi:cx="157.11053"
       sodipodi:cy="106.36156"
       sodipodi:rx="0.40000001"
       sodipodi:ry="0.40000001"
       sodipodi:start="0.0038682605"
       sodipodi:end="0.001736257"
       sodipodi:open="true"
       d="m 157.51053,106.3631 a 0.40000001,0.40000001 0 0 1 -0.40133,0.39845 0.40000001,0.40000001 0 0 1 -0.39866,-0.40111 0.40000001,0.40000001 0 0 1 0.4009,-0.39888 0.40000001,0.40000001 0 0 1 0.39909,0.40069" />
    <path
       style="opacity:1;fill:#00b5ff;fill-opacity:1;stroke:#00b5ff;stroke-width:0.26499999;stroke-linecap:round;stroke-linejoin:round;stroke-miterlimit:4;stroke-dasharray:none;stroke-dashoffset:0;stroke-opacity:1"
       id="path819-62-8"
       sodipodi:type="arc"
       sodipodi:cx="153.70279"
       sodipodi:cy="154.58635"
       sodipodi:rx="0.40000001"
       sodipodi:ry="0.40000001"
       sodipodi:start="0.0038682605"
       sodipodi:end="0.001736257"
       sodipodi:open="true"
       d="m 154.10279,154.5879 a 0.40000001,0.40000001 0 0 1 -0.40133,0.39845 0.40000001,0.40000001 0 0 1 -0.39867,-0.40112 0.40000001,0.40000001 0 0 1 0.40091,-0.39888 0.40000001,0.40000001 0 0 1 0.39909,0.40069" />
    <path
       style="opacity:1;fill:#00b5ff;fill-opacity:1;stroke:#00b5ff;stroke-width:0.26499999;stroke-linecap:round;stroke-linejoin:round;stroke-miterlimit:4;stroke-dasharray:none;stroke-dashoffset:0;stroke-opacity:1"
       id="path819-9-8"
       sodipodi:type="arc"
       sodipodi:cx="160.86072"
       sodipodi:cy="154.50571"
       sodipodi:rx="0.40000001"
       sodipodi:ry="0.40000001"
       sodipodi:start="0.0038682605"
       sodipodi:end="0.001736257"
       sodipodi:open="true"
       d="m 161.26071,154.50725 a 0.40000001,0.40000001 0 0 1 -0.40133,0.39845 0.40000001,0.40000001 0 0 1 -0.39866,-0.40111 0.40000001,0.40000001 0 0 1 0.40091,-0.39888 0.40000001,0.40000001 0 0 1 0.39909,0.40069" />
    <path
       style="opacity:1;fill:#00b5ff;fill-opacity:1;stroke:#00b5ff;stroke-width:0.26499999;stroke-linecap:round;stroke-linejoin:round;stroke-miterlimit:4;stroke-dasharray:none;stroke-dashoffset:0;stroke-opacity:1"
       id="path819-1-3"
       sodipodi:type="arc"
       sodipodi:cx="157.23466"
       sodipodi:cy="154.48201"
       sodipodi:rx="0.40000001"
       sodipodi:ry="0.40000001"
       sodipodi:start="0.0038682605"
       sodipodi:end="0.001736257"
       sodipodi:open="true"
       d="m 157.63466,154.48356 a 0.40000001,0.40000001 0 0 1 -0.40133,0.39845 0.40000001,0.40000001 0 0 1 -0.39866,-0.40112 0.40000001,0.40000001 0 0 1 0.4009,-0.39888 0.40000001,0.40000001 0 0 1 0.39909,0.40069" />
    <path
       style="fill:none;stroke:#000000;stroke-width:0.26499999;stroke-linecap:butt;stroke-linejoin:miter;stroke-miterlimit:4;stroke-dasharray:0.265, 0.53;stroke-dashoffset:0;stroke-opacity:1"
       d="m 156.25584,105.53342 c -3.03467,21.38193 -3.82172,51.34438 -3.82172,51.34438"
       id="path878-1"
       inkscape:connector-curvature="0" />
    <path
       style="fill:none;stroke:#000000;stroke-width:0.26499999;stroke-linecap:butt;stroke-linejoin:miter;stroke-miterlimit:4;stroke-dasharray:0.265, 0.53;stroke-dashoffset:0;stroke-opacity:1"
       d="m 161.73491,156.8778 c 0,0 -0.78711,-29.96346 -3.82199,-51.3461"
       id="path878-2-8"
       inkscape:connector-curvature="0" />
    <text
       xml:space="preserve"
       style="font-style:normal;font-weight:normal;font-size:10.58333302px;line-height:1.25;font-family:sans-serif;letter-spacing:0px;word-spacing:0px;fill:#000000;fill-opacity:1;stroke:none;stroke-width:0.26458332"
       x="118.10997"
       y="165.4138"
       id="text54623"><tspan
         sodipodi:role="line"
         id="tspan54621"
         x="118.10997"
         y="165.4138"
         style="font-style:normal;font-variant:normal;font-weight:normal;font-stretch:normal;font-size:4.58611107px;font-family:'TeX Gyre Termes';-inkscape-font-specification:'TeX Gyre Termes';stroke-width:0.26458332">high diffusion</tspan></text>
    <text
       xml:space="preserve"
       style="font-style:normal;font-weight:normal;font-size:10.58333302px;line-height:1.25;font-family:sans-serif;letter-spacing:0px;word-spacing:0px;fill:#000000;fill-opacity:1;stroke:none;stroke-width:0.26458332"
       x="145.72206"
       y="165.43907"
       id="text54627"><tspan
         sodipodi:role="line"
         id="tspan54625"
         x="145.72206"
         y="165.43907"
         style="font-style:normal;font-variant:normal;font-weight:normal;font-stretch:normal;font-size:4.58611107px;font-family:'TeX Gyre Termes';-inkscape-font-specification:'TeX Gyre Termes';stroke-width:0.26458332">low diffusion</tspan></text>
    <path
       style="opacity:1;fill:#00b5ff;fill-opacity:1;stroke:#00b5ff;stroke-width:0.26499999;stroke-linecap:round;stroke-linejoin:round;stroke-miterlimit:4;stroke-dasharray:none;stroke-dashoffset:0;stroke-opacity:1"
       id="path819-6-0"
       sodipodi:type="arc"
       sodipodi:cx="130.77814"
       sodipodi:cy="126.16915"
       sodipodi:rx="0.40000001"
       sodipodi:ry="0.40000001"
       sodipodi:start="0.0038682605"
       sodipodi:end="0.001736257"
       sodipodi:open="true"
       d="m 131.17813,126.1707 a 0.40000001,0.40000001 0 0 1 -0.40133,0.39845 0.40000001,0.40000001 0 0 1 -0.39866,-0.40112 0.40000001,0.40000001 0 0 1 0.4009,-0.39888 0.40000001,0.40000001 0 0 1 0.3991,0.4007" />
    <path
       style="opacity:1;fill:#00b5ff;fill-opacity:1;stroke:#00b5ff;stroke-width:0.26499999;stroke-linecap:round;stroke-linejoin:round;stroke-miterlimit:4;stroke-dasharray:none;stroke-dashoffset:0;stroke-opacity:1"
       id="path819-6-2"
       sodipodi:type="arc"
       sodipodi:cx="131.00571"
       sodipodi:cy="132.8446"
       sodipodi:rx="0.40000001"
       sodipodi:ry="0.40000001"
       sodipodi:start="0.0038682605"
       sodipodi:end="0.001736257"
       sodipodi:open="true"
       d="m 131.4057,132.84615 a 0.40000001,0.40000001 0 0 1 -0.40133,0.39845 0.40000001,0.40000001 0 0 1 -0.39866,-0.40112 0.40000001,0.40000001 0 0 1 0.4009,-0.39887 0.40000001,0.40000001 0 0 1 0.3991,0.40069" />
    <path
       style="opacity:1;fill:#00b5ff;fill-opacity:1;stroke:#00b5ff;stroke-width:0.26499999;stroke-linecap:round;stroke-linejoin:round;stroke-miterlimit:4;stroke-dasharray:none;stroke-dashoffset:0;stroke-opacity:1"
       id="path819-6-97"
       sodipodi:type="arc"
       sodipodi:cx="157.25237"
       sodipodi:cy="127.76215"
       sodipodi:rx="0.40000001"
       sodipodi:ry="0.40000001"
       sodipodi:start="0.0038682605"
       sodipodi:end="0.001736257"
       sodipodi:open="true"
       d="m 157.65236,127.7637 a 0.40000001,0.40000001 0 0 1 -0.40133,0.39845 0.40000001,0.40000001 0 0 1 -0.39866,-0.40112 0.40000001,0.40000001 0 0 1 0.4009,-0.39888 0.40000001,0.40000001 0 0 1 0.39909,0.4007" />
    <path
       style="opacity:1;fill:#00b5ff;fill-opacity:1;stroke:#00b5ff;stroke-width:0.26499999;stroke-linecap:round;stroke-linejoin:round;stroke-miterlimit:4;stroke-dasharray:none;stroke-dashoffset:0;stroke-opacity:1"
       id="path819-6-3"
       sodipodi:type="arc"
       sodipodi:cx="157.17651"
       sodipodi:cy="131.09988"
       sodipodi:rx="0.40000001"
       sodipodi:ry="0.40000001"
       sodipodi:start="0.0038682605"
       sodipodi:end="0.001736257"
       sodipodi:open="true"
       d="m 157.57651,131.10143 a 0.40000001,0.40000001 0 0 1 -0.40133,0.39845 0.40000001,0.40000001 0 0 1 -0.39866,-0.40112 0.40000001,0.40000001 0 0 1 0.4009,-0.39887 0.40000001,0.40000001 0 0 1 0.39909,0.40069" />
    <path
       style="opacity:1;fill:#00b5ff;fill-opacity:1;stroke:#00b5ff;stroke-width:0.26499999;stroke-linecap:round;stroke-linejoin:round;stroke-miterlimit:4;stroke-dasharray:none;stroke-dashoffset:0;stroke-opacity:1"
       id="path819-6-96"
       sodipodi:type="arc"
       sodipodi:cx="157.10065"
       sodipodi:cy="150.8228"
       sodipodi:rx="0.40000001"
       sodipodi:ry="0.40000001"
       sodipodi:start="0.0038682605"
       sodipodi:end="0.001736257"
       sodipodi:open="true"
       d="m 157.50064,150.82435 a 0.40000001,0.40000001 0 0 1 -0.40133,0.39845 0.40000001,0.40000001 0 0 1 -0.39866,-0.40112 0.40000001,0.40000001 0 0 1 0.4009,-0.39888 0.40000001,0.40000001 0 0 1 0.3991,0.40069" />
    <path
       style="opacity:1;fill:#00b5ff;fill-opacity:1;stroke:#00b5ff;stroke-width:0.26499999;stroke-linecap:round;stroke-linejoin:round;stroke-miterlimit:4;stroke-dasharray:none;stroke-dashoffset:0;stroke-opacity:1"
       id="path819-6-1"
       sodipodi:type="arc"
       sodipodi:cx="157.10065"
       sodipodi:cy="157.34654"
       sodipodi:rx="0.40000001"
       sodipodi:ry="0.40000001"
       sodipodi:start="0.0038682605"
       sodipodi:end="0.001736257"
       sodipodi:open="true"
       d="m 157.50064,157.34809 a 0.40000001,0.40000001 0 0 1 -0.40133,0.39845 0.40000001,0.40000001 0 0 1 -0.39866,-0.40112 0.40000001,0.40000001 0 0 1 0.4009,-0.39888 0.40000001,0.40000001 0 0 1 0.3991,0.4007" />
    <path
       style="opacity:1;fill:#00b5ff;fill-opacity:1;stroke:#00b5ff;stroke-width:0.26499999;stroke-linecap:round;stroke-linejoin:round;stroke-miterlimit:4;stroke-dasharray:none;stroke-dashoffset:0;stroke-opacity:1"
       id="path819-6-33"
       sodipodi:type="arc"
       sodipodi:cx="130.92984"
       sodipodi:cy="147.71266"
       sodipodi:rx="0.40000001"
       sodipodi:ry="0.40000001"
       sodipodi:start="0.0038682605"
       sodipodi:end="0.001736257"
       sodipodi:open="true"
       d="m 131.32984,147.71421 a 0.40000001,0.40000001 0 0 1 -0.40133,0.39845 0.40000001,0.40000001 0 0 1 -0.39867,-0.40112 0.40000001,0.40000001 0 0 1 0.40091,-0.39888 0.40000001,0.40000001 0 0 1 0.39909,0.4007" />
    <path
       style="opacity:1;fill:#00b5ff;fill-opacity:1;stroke:#00b5ff;stroke-width:0.26499999;stroke-linecap:round;stroke-linejoin:round;stroke-miterlimit:4;stroke-dasharray:none;stroke-dashoffset:0;stroke-opacity:1"
       id="path819-6-6"
       sodipodi:type="arc"
       sodipodi:cx="131.15742"
       sodipodi:cy="159.16711"
       sodipodi:rx="0.40000001"
       sodipodi:ry="0.40000001"
       sodipodi:start="0.0038682605"
       sodipodi:end="0.001736257"
       sodipodi:open="true"
       d="m 131.55742,159.16866 a 0.40000001,0.40000001 0 0 1 -0.40133,0.39845 0.40000001,0.40000001 0 0 1 -0.39866,-0.40112 0.40000001,0.40000001 0 0 1 0.4009,-0.39887 0.40000001,0.40000001 0 0 1 0.39909,0.40069" />
    <path
       style="opacity:1;fill:#00b5ff;fill-opacity:1;stroke:#00b5ff;stroke-width:0.26499999;stroke-linecap:round;stroke-linejoin:round;stroke-miterlimit:4;stroke-dasharray:none;stroke-dashoffset:0;stroke-opacity:1"
       id="path819-6-13"
       sodipodi:type="arc"
       sodipodi:cx="156.82826"
       sodipodi:cy="108.23657"
       sodipodi:rx="0.40000001"
       sodipodi:ry="0.40000001"
       sodipodi:start="0.0038682605"
       sodipodi:end="0.001736257"
       sodipodi:open="true"
       d="m 157.22826,108.23812 a 0.40000001,0.40000001 0 0 1 -0.40133,0.39845 0.40000001,0.40000001 0 0 1 -0.39867,-0.40112 0.40000001,0.40000001 0 0 1 0.40091,-0.39888 0.40000001,0.40000001 0 0 1 0.39909,0.4007" />
    <path
       style="opacity:1;fill:#00b5ff;fill-opacity:1;stroke:#00b5ff;stroke-width:0.26499999;stroke-linecap:round;stroke-linejoin:round;stroke-miterlimit:4;stroke-dasharray:none;stroke-dashoffset:0;stroke-opacity:1"
       id="path819-6-38"
       sodipodi:type="arc"
       sodipodi:cx="157.63586"
       sodipodi:cy="108.09262"
       sodipodi:rx="0.40000001"
       sodipodi:ry="0.40000001"
       sodipodi:start="0.0038682605"
       sodipodi:end="0.001736257"
       sodipodi:open="true"
       d="m 158.03586,108.09417 a 0.40000001,0.40000001 0 0 1 -0.40133,0.39845 0.40000001,0.40000001 0 0 1 -0.39866,-0.40112 0.40000001,0.40000001 0 0 1 0.4009,-0.39888 0.40000001,0.40000001 0 0 1 0.39909,0.4007" />
    <path
       style="opacity:1;fill:#00b5ff;fill-opacity:1;stroke:#00b5ff;stroke-width:0.26499999;stroke-linecap:round;stroke-linejoin:round;stroke-miterlimit:4;stroke-dasharray:none;stroke-dashoffset:0;stroke-opacity:1"
       id="path819-6-8"
       sodipodi:type="arc"
       sodipodi:cx="130.16628"
       sodipodi:cy="108.69513"
       sodipodi:rx="0.40000001"
       sodipodi:ry="0.40000001"
       sodipodi:start="0.0038682605"
       sodipodi:end="0.001736257"
       sodipodi:open="true"
       d="m 130.56627,108.69668 a 0.40000001,0.40000001 0 0 1 -0.40133,0.39845 0.40000001,0.40000001 0 0 1 -0.39866,-0.40112 0.40000001,0.40000001 0 0 1 0.4009,-0.39888 0.40000001,0.40000001 0 0 1 0.39909,0.40069" />
    <path
       style="opacity:1;fill:#00b5ff;fill-opacity:1;stroke:#00b5ff;stroke-width:0.26499999;stroke-linecap:round;stroke-linejoin:round;stroke-miterlimit:4;stroke-dasharray:none;stroke-dashoffset:0;stroke-opacity:1"
       id="path819-6-4"
       sodipodi:type="arc"
       sodipodi:cx="130.83861"
       sodipodi:cy="108.67213"
       sodipodi:rx="0.40000001"
       sodipodi:ry="0.40000001"
       sodipodi:start="0.0038682605"
       sodipodi:end="0.001736257"
       sodipodi:open="true"
       d="m 131.2386,108.67367 a 0.40000001,0.40000001 0 0 1 -0.40133,0.39845 0.40000001,0.40000001 0 0 1 -0.39866,-0.40111 0.40000001,0.40000001 0 0 1 0.40091,-0.39888 0.40000001,0.40000001 0 0 1 0.39909,0.40069" />
  </g>
</svg>
