<?xml version="1.0" encoding="UTF-8" standalone="no"?>
<!-- Created with Inkscape (http://www.inkscape.org/) -->

<svg
   xmlns:dc="http://purl.org/dc/elements/1.1/"
   xmlns:cc="http://creativecommons.org/ns#"
   xmlns:rdf="http://www.w3.org/1999/02/22-rdf-syntax-ns#"
   xmlns:svg="http://www.w3.org/2000/svg"
   xmlns="http://www.w3.org/2000/svg"
   xmlns:sodipodi="http://sodipodi.sourceforge.net/DTD/sodipodi-0.dtd"
   xmlns:inkscape="http://www.inkscape.org/namespaces/inkscape"
   width="210mm"
   height="297mm"
   viewBox="0 0 210 297"
   version="1.1"
   id="svg8"
   inkscape:version="0.92.3 (2405546, 2018-03-11)"
   sodipodi:docname="diffusion_image.svg">
  <defs
     id="defs2">
    <marker
       inkscape:stockid="Arrow1Send"
       orient="auto"
       refY="0.0"
       refX="0.0"
       id="Arrow1Send"
       style="overflow:visible;"
       inkscape:isstock="true">
      <path
         id="path930"
         d="M 0.0,0.0 L 5.0,-5.0 L -12.5,0.0 L 5.0,5.0 L 0.0,0.0 z "
         style="fill-rule:evenodd;stroke:#000000;stroke-width:1pt;stroke-opacity:1;fill:#000000;fill-opacity:1"
         transform="scale(0.2) rotate(180) translate(6,0)" />
    </marker>
    <marker
       inkscape:stockid="Arrow2Mend"
       orient="auto"
       refY="0.0"
       refX="0.0"
       id="Arrow2Mend"
       style="overflow:visible;"
       inkscape:isstock="true">
      <path
         id="path942"
         style="fill-rule:evenodd;stroke-width:0.625;stroke-linejoin:round;stroke:#000000;stroke-opacity:1;fill:#000000;fill-opacity:1"
         d="M 8.7185878,4.0337352 L -2.2072895,0.016013256 L 8.7185884,-4.0017078 C 6.9730900,-1.6296469 6.9831476,1.6157441 8.7185878,4.0337352 z "
         transform="scale(0.6) rotate(180) translate(0,0)" />
    </marker>
    <marker
       inkscape:stockid="Arrow1Lend"
       orient="auto"
       refY="0.0"
       refX="0.0"
       id="Arrow1Lend"
       style="overflow:visible;"
       inkscape:isstock="true">
      <path
         id="path918"
         d="M 0.0,0.0 L 5.0,-5.0 L -12.5,0.0 L 5.0,5.0 L 0.0,0.0 z "
         style="fill-rule:evenodd;stroke:#000000;stroke-width:1pt;stroke-opacity:1;fill:#000000;fill-opacity:1"
         transform="scale(0.8) rotate(180) translate(12.5,0)" />
    </marker>
  </defs>
  <sodipodi:namedview
     id="base"
     pagecolor="#ffffff"
     bordercolor="#666666"
     borderopacity="1.0"
     inkscape:pageopacity="0.0"
     inkscape:pageshadow="2"
     inkscape:zoom="2.9230469"
     inkscape:cx="540.93535"
     inkscape:cy="617.61924"
     inkscape:document-units="mm"
     inkscape:current-layer="layer1"
     showgrid="false"
     inkscape:window-width="1200"
     inkscape:window-height="1892"
     inkscape:window-x="0"
     inkscape:window-y="0"
     inkscape:window-maximized="1" />
  <metadata
     id="metadata5">
    <rdf:RDF>
      <cc:Work
         rdf:about="">
        <dc:format>image/svg+xml</dc:format>
        <dc:type
           rdf:resource="http://purl.org/dc/dcmitype/StillImage" />
        <dc:title></dc:title>
      </cc:Work>
    </rdf:RDF>
  </metadata>
  <g
     inkscape:label="レイヤー 1"
     inkscape:groupmode="layer"
     id="layer1">
    <path
       style="fill:none;stroke:#ff0000;stroke-width:0.26458332px;stroke-linecap:butt;stroke-linejoin:miter;stroke-opacity:0.99421967"
       d="M 120.92975,110.53646 164.0155,99.674504"
       id="path817"
       inkscape:connector-curvature="0"
       sodipodi:nodetypes="cc" />
    <path
       style="opacity:1;fill:#00b5ff;fill-opacity:1;stroke:#00b5ff;stroke-width:0.26499999;stroke-linecap:round;stroke-linejoin:round;stroke-miterlimit:4;stroke-dasharray:none;stroke-dashoffset:0;stroke-opacity:1"
       id="path819"
       sodipodi:type="arc"
       sodipodi:cx="142.82693"
       sodipodi:cy="107.86911"
       sodipodi:rx="0.40000001"
       sodipodi:ry="0.40000001"
       sodipodi:start="0.0038682605"
       sodipodi:end="0.001736257"
       sodipodi:open="true"
       d="m 143.22693,107.87066 a 0.40000001,0.40000001 0 0 1 -0.40133,0.39845 0.40000001,0.40000001 0 0 1 -0.39866,-0.40112 0.40000001,0.40000001 0 0 1 0.4009,-0.39888 0.40000001,0.40000001 0 0 1 0.39909,0.40069" />
    <path
       style="opacity:1;fill:#00b5ff;fill-opacity:1;stroke:#00b5ff;stroke-width:0.26499999;stroke-linecap:round;stroke-linejoin:round;stroke-miterlimit:4;stroke-dasharray:none;stroke-dashoffset:0;stroke-opacity:1"
       id="path819-3"
       sodipodi:type="arc"
       sodipodi:cx="137.55614"
       sodipodi:cy="129.66626"
       sodipodi:rx="0.40000001"
       sodipodi:ry="0.40000001"
       sodipodi:start="0.0038682605"
       sodipodi:end="0.001736257"
       sodipodi:open="true"
       d="m 137.95613,129.66781 a 0.40000001,0.40000001 0 0 1 -0.40133,0.39845 0.40000001,0.40000001 0 0 1 -0.39866,-0.40112 0.40000001,0.40000001 0 0 1 0.4009,-0.39888 0.40000001,0.40000001 0 0 1 0.3991,0.40069" />
    <path
       style="opacity:1;fill:#00b5ff;fill-opacity:1;stroke:#00b5ff;stroke-width:0.26499999;stroke-linecap:round;stroke-linejoin:round;stroke-miterlimit:4;stroke-dasharray:none;stroke-dashoffset:0;stroke-opacity:1"
       id="path819-6"
       sodipodi:type="arc"
       sodipodi:cx="142.40985"
       sodipodi:cy="129.38274"
       sodipodi:rx="0.40000001"
       sodipodi:ry="0.40000001"
       sodipodi:start="0.0038682605"
       sodipodi:end="0.001736257"
       sodipodi:open="true"
       d="m 142.80985,129.38428 a 0.40000001,0.40000001 0 0 1 -0.40133,0.39845 0.40000001,0.40000001 0 0 1 -0.39867,-0.40111 0.40000001,0.40000001 0 0 1 0.40091,-0.39888 0.40000001,0.40000001 0 0 1 0.39909,0.40069" />
    <path
       style="opacity:1;fill:#00b5ff;fill-opacity:1;stroke:#00b5ff;stroke-width:0.26499999;stroke-linecap:round;stroke-linejoin:round;stroke-miterlimit:4;stroke-dasharray:none;stroke-dashoffset:0;stroke-opacity:1"
       id="path819-7"
       sodipodi:type="arc"
       sodipodi:cx="147.01309"
       sodipodi:cy="129.11119"
       sodipodi:rx="0.40000001"
       sodipodi:ry="0.40000001"
       sodipodi:start="0.0038682605"
       sodipodi:end="0.001736257"
       sodipodi:open="true"
       d="m 147.41309,129.11274 a 0.40000001,0.40000001 0 0 1 -0.40133,0.39845 0.40000001,0.40000001 0 0 1 -0.39867,-0.40112 0.40000001,0.40000001 0 0 1 0.40091,-0.39888 0.40000001,0.40000001 0 0 1 0.39909,0.4007" />
    <path
       style="opacity:1;fill:#00b5ff;fill-opacity:1;stroke:#00b5ff;stroke-width:0.26499999;stroke-linecap:round;stroke-linejoin:round;stroke-miterlimit:4;stroke-dasharray:none;stroke-dashoffset:0;stroke-opacity:1"
       id="path819-5"
       sodipodi:type="arc"
       sodipodi:cx="141.8623"
       sodipodi:cy="107.71166"
       sodipodi:rx="0.40000001"
       sodipodi:ry="0.40000001"
       sodipodi:start="0.0038682605"
       sodipodi:end="0.001736257"
       sodipodi:open="true"
       d="m 142.2623,107.71321 a 0.40000001,0.40000001 0 0 1 -0.40133,0.39845 0.40000001,0.40000001 0 0 1 -0.39866,-0.40112 0.40000001,0.40000001 0 0 1 0.4009,-0.39888 0.40000001,0.40000001 0 0 1 0.39909,0.4007" />
    <path
       style="opacity:1;fill:#00b5ff;fill-opacity:1;stroke:#00b5ff;stroke-width:0.26499999;stroke-linecap:round;stroke-linejoin:round;stroke-miterlimit:4;stroke-dasharray:none;stroke-dashoffset:0;stroke-opacity:1"
       id="path819-35"
       sodipodi:type="arc"
       sodipodi:cx="142.33287"
       sodipodi:cy="106.76324"
       sodipodi:rx="0.40000001"
       sodipodi:ry="0.40000001"
       sodipodi:start="0.0038682605"
       sodipodi:end="0.001736257"
       sodipodi:open="true"
       d="m 142.73287,106.76478 a 0.40000001,0.40000001 0 0 1 -0.40133,0.39845 0.40000001,0.40000001 0 0 1 -0.39867,-0.40111 0.40000001,0.40000001 0 0 1 0.40091,-0.39888 0.40000001,0.40000001 0 0 1 0.39909,0.40069" />
    <path
       style="opacity:1;fill:#00b5ff;fill-opacity:1;stroke:#00b5ff;stroke-width:0.26499999;stroke-linecap:round;stroke-linejoin:round;stroke-miterlimit:4;stroke-dasharray:none;stroke-dashoffset:0;stroke-opacity:1"
       id="path819-62"
       sodipodi:type="arc"
       sodipodi:cx="135.19608"
       sodipodi:cy="157.18916"
       sodipodi:rx="0.40000001"
       sodipodi:ry="0.40000001"
       sodipodi:start="0.0038682605"
       sodipodi:end="0.001736257"
       sodipodi:open="true"
       d="m 135.59607,157.19071 a 0.40000001,0.40000001 0 0 1 -0.40133,0.39845 0.40000001,0.40000001 0 0 1 -0.39866,-0.40112 0.40000001,0.40000001 0 0 1 0.4009,-0.39888 0.40000001,0.40000001 0 0 1 0.39909,0.4007" />
    <path
       style="opacity:1;fill:#00b5ff;fill-opacity:1;stroke:#00b5ff;stroke-width:0.26499999;stroke-linecap:round;stroke-linejoin:round;stroke-miterlimit:4;stroke-dasharray:none;stroke-dashoffset:0;stroke-opacity:1"
       id="path819-9"
       sodipodi:type="arc"
       sodipodi:cx="142.56891"
       sodipodi:cy="156.76764"
       sodipodi:rx="0.40000001"
       sodipodi:ry="0.40000001"
       sodipodi:start="0.0038682605"
       sodipodi:end="0.001736257"
       sodipodi:open="true"
       d="m 142.96891,156.76919 a 0.40000001,0.40000001 0 0 1 -0.40134,0.39845 0.40000001,0.40000001 0 0 1 -0.39866,-0.40112 0.40000001,0.40000001 0 0 1 0.40091,-0.39888 0.40000001,0.40000001 0 0 1 0.39909,0.40069" />
    <path
       style="opacity:1;fill:#00b5ff;fill-opacity:1;stroke:#00b5ff;stroke-width:0.26499999;stroke-linecap:round;stroke-linejoin:round;stroke-miterlimit:4;stroke-dasharray:none;stroke-dashoffset:0;stroke-opacity:1"
       id="path819-1"
       sodipodi:type="arc"
       sodipodi:cx="149.77031"
       sodipodi:cy="156.9697"
       sodipodi:rx="0.40000001"
       sodipodi:ry="0.40000001"
       sodipodi:start="0.0038682605"
       sodipodi:end="0.001736257"
       sodipodi:open="true"
       d="m 150.17031,156.97124 a 0.40000001,0.40000001 0 0 1 -0.40133,0.39845 0.40000001,0.40000001 0 0 1 -0.39867,-0.40111 0.40000001,0.40000001 0 0 1 0.40091,-0.39888 0.40000001,0.40000001 0 0 1 0.39909,0.40069" />
    <path
       style="fill:none;stroke:#000000;stroke-width:0.26499999;stroke-linecap:butt;stroke-linejoin:miter;stroke-miterlimit:4;stroke-dasharray:0.26499999, 0.52999997;stroke-dashoffset:0;stroke-opacity:1"
       d="m 141.80798,105.66246 c -6.41643,21.37602 -8.08056,51.3302 -8.08056,51.3302"
       id="path878"
       inkscape:connector-curvature="0" />
    <path
       style="fill:none;stroke:#000000;stroke-width:0.2645953;stroke-linecap:butt;stroke-linejoin:miter;stroke-miterlimit:4;stroke-dasharray:0.26459529, 0.52919057;stroke-dashoffset:0;stroke-opacity:1"
       d="m 150.98969,156.99266 c 0,0 -1.66422,-29.95519 -8.08102,-51.33194"
       id="path878-2"
       inkscape:connector-curvature="0" />
    <path
       style="fill:none;stroke:#000000;stroke-width:0.76499999;stroke-linecap:butt;stroke-linejoin:miter;stroke-miterlimit:4;stroke-dasharray:none;stroke-opacity:1;marker-end:url(#Arrow1Send)"
       d="m 157.40781,123.29926 v 18.73687"
       id="path913"
       inkscape:connector-curvature="0" />
    <text
       xml:space="preserve"
       style="font-style:normal;font-weight:normal;font-size:10.58333302px;line-height:1.25;font-family:sans-serif;letter-spacing:0px;word-spacing:0px;fill:#000000;fill-opacity:1;stroke:none;stroke-width:0.26458332"
       x="128.75989"
       y="-159.21371"
       id="text1305"
       transform="rotate(90)"><tspan
         sodipodi:role="line"
         id="tspan1303"
         x="128.75989"
         y="-159.21371"
         style="font-style:normal;font-variant:normal;font-weight:normal;font-stretch:normal;font-size:4.93888903px;font-family:'TeX Gyre Termes';-inkscape-font-specification:'TeX Gyre Termes';stroke-width:0.26458332">drift</tspan></text>
  </g>
</svg>
