<?xml version="1.0" encoding="UTF-8" standalone="no"?>
<!-- Created with Inkscape (http://www.inkscape.org/) -->

<svg
   xmlns:ns0="http://www.iki.fi/pav/software/textext/"
   xmlns:dc="http://purl.org/dc/elements/1.1/"
   xmlns:cc="http://creativecommons.org/ns#"
   xmlns:rdf="http://www.w3.org/1999/02/22-rdf-syntax-ns#"
   xmlns:svg="http://www.w3.org/2000/svg"
   xmlns="http://www.w3.org/2000/svg"
   xmlns:sodipodi="http://sodipodi.sourceforge.net/DTD/sodipodi-0.dtd"
   xmlns:inkscape="http://www.inkscape.org/namespaces/inkscape"
   width="210mm"
   height="297mm"
   viewBox="0 0 210 297"
   version="1.1"
   id="svg8"
   enable-background="new"
   inkscape:version="0.92.3 (2405546, 2018-03-11)"
   sodipodi:docname="drift_v_image.svg">
  <sodipodi:namedview
     id="base"
     pagecolor="#ffffff"
     bordercolor="#666666"
     borderopacity="1.0"
     inkscape:pageopacity="0.0"
     inkscape:pageshadow="2"
     inkscape:zoom="2.5087282"
     inkscape:cx="357.18738"
     inkscape:cy="421.55964"
     inkscape:document-units="mm"
     inkscape:current-layer="layer1"
     showgrid="true"
     inkscape:window-width="1920"
     inkscape:window-height="1025"
     inkscape:window-x="1200"
     inkscape:window-y="541"
     inkscape:window-maximized="1">
    <inkscape:grid
       type="xygrid"
       id="grid815"
       units="mm"
       spacingx="1"
       spacingy="1" />
  </sodipodi:namedview>
  <defs
     id="defs2" />
  <metadata
     id="metadata5">
    <rdf:RDF>
      <cc:Work
         rdf:about="">
        <dc:format>image/svg+xml</dc:format>
        <dc:type
           rdf:resource="http://purl.org/dc/dcmitype/StillImage" />
        <dc:title />
      </cc:Work>
    </rdf:RDF>
  </metadata>
  <g
     inkscape:label="レイヤー 1"
     inkscape:groupmode="layer"
     id="layer1">
    <path
       style="fill:none;stroke:#800000;stroke-width:1;stroke-linecap:round;stroke-linejoin:miter;stroke-miterlimit:4;stroke-dasharray:none;stroke-opacity:1"
       d="M 60,197 95,181.99999"
       id="path835"
       inkscape:connector-curvature="0"
       sodipodi:nodetypes="cc" />
    <rect
       style="opacity:1;fill:none;fill-opacity:1;stroke:#000000;stroke-width:0.26499999;stroke-linecap:round;stroke-linejoin:bevel;stroke-miterlimit:4;stroke-dasharray:none;stroke-dashoffset:0;stroke-opacity:1"
       id="rect817"
       width="35"
       height="50"
       x="60"
       y="156.99998" />
    <path
       style="fill:none;stroke:#000000;stroke-width:0.26458332;stroke-linecap:butt;stroke-linejoin:miter;stroke-miterlimit:4;stroke-dasharray:1.5874999, 1.5874999;stroke-dashoffset:0;stroke-opacity:1"
       d="m 60,197 h 75"
       id="path837"
       inkscape:connector-curvature="0"
       sodipodi:nodetypes="cc" />
    <text
       xml:space="preserve"
       style="font-style:normal;font-weight:normal;font-size:10.58333302px;line-height:1.25;font-family:sans-serif;letter-spacing:0px;word-spacing:0px;fill:#000000;fill-opacity:1;stroke:none;stroke-width:0.26458332"
       x="111"
       y="212"
       id="text865"><tspan
         sodipodi:role="line"
         id="tspan863"
         x="111"
         y="222.63625"
         style="stroke-width:0.26458332" /></text>
    <text
       id="text1041"
       y="211.49149"
       x="62.903854"
       style="font-style:normal;font-variant:normal;font-weight:normal;font-stretch:normal;font-size:5.64444447px;line-height:1.25;font-family:'TeX Gyre Termes';-inkscape-font-specification:'TeX Gyre Termes';letter-spacing:0px;word-spacing:0px;text-anchor:start;fill:#000000;fill-opacity:1;fill-rule:evenodd;stroke:none;stroke-width:0.26458332;stroke-linecap:butt;stroke-linejoin:miter;stroke-miterlimit:10.43299961;stroke-dasharray:none;stroke-dashoffset:0;stroke-opacity:1"
       xml:space="preserve"><tspan
         style="font-style:normal;font-variant:normal;font-weight:normal;font-stretch:normal;font-size:5.64444447px;font-family:'TeX Gyre Termes';-inkscape-font-specification:'TeX Gyre Termes';stroke-width:0.26458332"
         y="211.49149"
         x="62.903854"
         id="tspan1039"
         sodipodi:role="line">strip number</tspan></text>
    <text
       transform="rotate(-90)"
       id="text1045"
       y="58.371864"
       x="-190.927"
       style="font-style:normal;font-variant:normal;font-weight:normal;font-stretch:normal;font-size:5.64444447px;line-height:1.25;font-family:'TeX Gyre Termes';-inkscape-font-specification:'TeX Gyre Termes';letter-spacing:0px;word-spacing:0px;text-anchor:start;fill:#000000;fill-opacity:1;fill-rule:evenodd;stroke:none;stroke-width:0.26458332;stroke-linecap:butt;stroke-linejoin:miter;stroke-miterlimit:10.43299961;stroke-dasharray:none;stroke-dashoffset:0;stroke-opacity:1"
       xml:space="preserve"><tspan
         style="font-style:normal;font-variant:normal;font-weight:normal;font-stretch:normal;font-size:5.64444447px;font-family:'TeX Gyre Termes';-inkscape-font-specification:'TeX Gyre Termes';stroke-width:0.26458332"
         y="58.371864"
         x="-190.927"
         id="tspan1043"
         sodipodi:role="line">drift time</tspan></text>
    <g
       id="g1070"
       transform="translate(-45.20916,0.63376405)">
      <g
         ns0:preamble=""
         ns0:text="$\\Delta$z"
         word-spacing="normal"
         letter-spacing="normal"
         font-size-adjust="none"
         font-stretch="normal"
         font-weight="normal"
         font-variant="normal"
         font-style="normal"
         stroke-miterlimit="10.433"
         xml:space="preserve"
         transform="matrix(0.64565231,0,0,-0.64565231,-34.990459,658.57352)"
         id="content"
         style="font-style:normal;font-variant:normal;font-weight:normal;font-stretch:normal;letter-spacing:normal;word-spacing:normal;text-anchor:start;fill:none;fill-opacity:1;fill-rule:evenodd;stroke:#000000;stroke-linecap:butt;stroke-linejoin:miter;stroke-miterlimit:10.43299961;stroke-dasharray:none;stroke-dashoffset:0;stroke-opacity:1">
<path
   id="path889"
   d="m 227.84,714.06 -0.01,0.01 v 0.01 l -0.01,0.01 v 0.01 l -0.01,0.01 -0.01,0.01 v 0.01 l -0.01,0.01 v 0.01 l -0.01,0.01 v 0.01 h -0.01 v 0.01 l -0.01,0.01 h -0.01 v 0.01 h -0.01 l -0.01,0.01 v 0 l -0.01,0.01 h -0.01 -0.01 l -0.01,0.01 h -0.01 -0.01 -0.01 -0.01 l -0.01,0.01 h -0.02 -0.01 -0.01 -0.02 c -0.17,0 -0.19,-0.05 -0.26,-0.18 l -0.06,-0.82 2.68,-5.36 h -5.37 l 2.69,5.36 0.06,0.82 -3.37,-6.74 c -0.05,-0.09 -0.05,-0.11 -0.05,-0.12 0,-0.08 0.06,-0.08 0.22,-0.08 h 6.92 c 0.16,0 0.22,0 0.22,0.08 0,0.01 0,0.03 -0.05,0.12 z"
   inkscape:connector-curvature="0"
   style="fill:#000000;stroke-width:0" />
<path
   id="path891"
   d="m 235.62,711.11 h 0.01 v 0.01 h 0.01 v 0.01 0 l 0.01,0.01 v 0 0.01 h 0.01 v 0 0.01 0 h 0.01 v 0.01 l 0.01,0.01 v 0 0.01 h 0.01 v 0.01 0 l 0.01,0.01 v 0 0.01 0 l 0.01,0.01 v 0 0.01 0 0 0.01 0 0.01 0 0.01 0.01 c 0,0.13 -0.08,0.13 -0.26,0.13 h -3.19 l -0.11,-1.6 h 0.25 c 0.06,1.01 0.25,1.38 1.35,1.38 h 1.13 l -2.78,-3.75 c -0.09,-0.11 -0.09,-0.13 -0.09,-0.18 0,-0.14 0.07,-0.14 0.26,-0.14 h 3.29 l 0.17,1.86 h -0.25 c -0.09,-1.17 -0.3,-1.61 -1.45,-1.61 h -1.18 z"
   inkscape:connector-curvature="0"
   style="fill:#000000;stroke-width:0" />
</g>      <text
         id="text1049"
         y="201.99998"
         x="118"
         style="font-style:normal;font-variant:normal;font-weight:normal;font-stretch:normal;font-size:5.64444447px;line-height:1.25;font-family:'TeX Gyre Termes';-inkscape-font-specification:'TeX Gyre Termes';letter-spacing:0px;word-spacing:0px;fill:#000000;fill-opacity:1;stroke:none;stroke-width:0.26458332"
         xml:space="preserve"><tspan
           style="font-style:normal;font-variant:normal;font-weight:normal;font-stretch:normal;font-size:5.64444447px;font-family:'TeX Gyre Termes';-inkscape-font-specification:'TeX Gyre Termes';stroke-width:0.26458332"
           y="201.99998"
           x="118"
           id="tspan1047"
           sodipodi:role="line">/0.4 mm</tspan></text>
    </g>
    <g
       id="g30777"
       transform="rotate(90,124.15846,204.79239)">
      <g
         transform="translate(-29.470833,0.52917589)"
         id="g1077">
        <g
           id="g1063"
           transform="matrix(0.89822721,0,0,0.89822721,25.174704,18.909427)">
          <path
             id="path946"
             d="m 113.51199,186.621 -0.007,-0.007 v -0.007 l -0.007,-0.007 v -0.007 l -0.007,-0.007 -0.007,-0.007 v -0.007 l -0.007,-0.007 v -0.007 l -0.007,-0.007 v -0.007 h -0.007 v -0.007 l -0.007,-0.007 h -0.007 v -0.007 h -0.007 l -0.007,-0.007 v 0 l -0.007,-0.007 h -0.007 -0.007 l -0.007,-0.007 h -0.007 -0.007 -0.007 -0.007 l -0.007,-0.007 h -0.0142 -0.007 -0.007 -0.0142 c -0.12046,0 -0.13463,0.0354 -0.18423,0.12755 l -0.0425,0.58103 L 115,191 h -3.80505 l 1.90607,-3.79797 0.0425,-0.58103 -2.3879,4.7758 c -0.0354,0.0638 -0.0354,0.0779 -0.0354,0.085 0,0.0567 0.0425,0.0567 0.15589,0.0567 h 4.90334 c 0.11338,0 0.15589,0 0.15589,-0.0567 0,-0.007 0,-0.0213 -0.0354,-0.085 z"
             inkscape:connector-curvature="0"
             style="font-style:normal;font-variant:normal;font-weight:normal;font-stretch:normal;letter-spacing:normal;word-spacing:normal;text-anchor:start;fill:#000000;fill-opacity:1;fill-rule:evenodd;stroke:#000000;stroke-width:0;stroke-linecap:butt;stroke-linejoin:miter;stroke-miterlimit:10.43299961;stroke-dasharray:none;stroke-dashoffset:0;stroke-opacity:1" />
          <path
             id="path948"
             d="m 119.20186,189.17187 0.007,-0.0213 0.0142,-0.0213 0.007,-0.0212 0.007,-0.0142 0.0142,-0.0213 0.007,-0.0142 0.0142,-0.0213 0.007,-0.0142 0.0213,-0.0283 0.0212,-0.0284 0.0213,-0.0283 0.0213,-0.0283 0.0283,-0.0213 0.0213,-0.0213 0.0213,-0.0142 0.0283,-0.0213 0.0213,-0.0142 0.0283,-0.0142 0.0213,-0.0142 0.0212,-0.0142 0.0284,-0.007 0.0212,-0.007 0.0213,-0.007 0.0213,-0.007 0.0283,-0.007 0.0213,-0.007 h 0.0213 l 0.0142,-0.007 h 0.0213 0.0213 l 0.0142,-0.007 h 0.0142 0.0212 0.0142 0.007 0.0142 v -0.21966 c -0.16297,0.0142 -0.36846,0.0213 -0.53143,0.0213 -0.12754,0 -0.46057,-0.0142 -0.61646,-0.0213 v 0.21966 c 0.21966,0.007 0.33303,0.12754 0.33303,0.30469 0,0.0709 -0.007,0.085 -0.0425,0.17006 l -0.70857,1.72892 -0.78652,-1.8919 c -0.0283,-0.0708 -0.0425,-0.0992 -0.0425,-0.12754 0,-0.18423 0.26218,-0.18423 0.39681,-0.18423 v -0.21966 c -0.18423,0.007 -0.65189,0.0213 -0.77235,0.0213 -0.19132,0 -0.47475,-0.007 -0.68732,-0.0213 v 0.21966 c 0.34012,0 0.47475,0 0.57395,0.248 l 1.06286,2.57213 c -0.0354,0.085 -0.13463,0.31886 -0.17714,0.41098 -0.15589,0.38971 -0.35429,0.87155 -0.80778,0.87155 -0.0354,0 -0.1984,0 -0.33303,-0.12755 0.21966,-0.0283 0.27634,-0.17714 0.27634,-0.29051 0,-0.18423 -0.13463,-0.29761 -0.2976,-0.29761 -0.14171,0 -0.2976,0.0921 -0.2976,0.30469 0,0.31178 0.2976,0.56686 0.65189,0.56686 0.4464,0 0.73692,-0.40389 0.90698,-0.80069 z"
             inkscape:connector-curvature="0"
             style="font-style:normal;font-variant:normal;font-weight:normal;font-stretch:normal;letter-spacing:normal;word-spacing:normal;text-anchor:start;fill:#000000;fill-opacity:1;fill-rule:evenodd;stroke:#000000;stroke-width:0;stroke-linecap:butt;stroke-linejoin:miter;stroke-miterlimit:10.43299961;stroke-dasharray:none;stroke-dashoffset:0;stroke-opacity:1" />
        </g>
        <text
           xml:space="preserve"
           style="font-style:normal;font-variant:normal;font-weight:normal;font-stretch:normal;font-size:5.64444447px;line-height:1.25;font-family:'TeX Gyre Termes';-inkscape-font-specification:'TeX Gyre Termes';letter-spacing:0px;word-spacing:0px;fill:#000000;fill-opacity:1;stroke:none;stroke-width:0.26458332"
           x="132.87132"
           y="190.98647"
           id="text1053"><tspan
             sodipodi:role="line"
             id="tspan1051"
             x="132.87132"
             y="190.98647"
             style="font-style:normal;font-variant:normal;font-weight:normal;font-stretch:normal;font-size:5.64444447px;font-family:'TeX Gyre Termes';-inkscape-font-specification:'TeX Gyre Termes';stroke-width:0.26458332">/drift_v</tspan></text>
      </g>
    </g>
    <rect
       style="opacity:1;fill:none;fill-opacity:1;stroke:#000000;stroke-width:0.26499999;stroke-linecap:round;stroke-linejoin:bevel;stroke-miterlimit:4;stroke-dasharray:none;stroke-dashoffset:0;stroke-opacity:1"
       id="rect817-9"
       width="35"
       height="50"
       x="100"
       y="157" />
    <path
       style="fill:none;stroke:#000000;stroke-width:0.26458332;stroke-linecap:butt;stroke-linejoin:miter;stroke-miterlimit:4;stroke-dasharray:1.58749992, 1.58749992;stroke-dashoffset:0;stroke-opacity:1"
       d="m 95,182 h 40"
       id="path837-8"
       inkscape:connector-curvature="0"
       sodipodi:nodetypes="cc" />
    <path
       style="fill:none;stroke:#800000;stroke-width:1;stroke-linecap:round;stroke-linejoin:miter;stroke-miterlimit:4;stroke-dasharray:none;stroke-opacity:1"
       d="M 118,197 V 182"
       id="path835-8"
       inkscape:connector-curvature="0"
       sodipodi:nodetypes="cc" />
    <text
       id="text1041-4"
       y="211.49149"
       x="103.16435"
       style="font-style:normal;font-variant:normal;font-weight:normal;font-stretch:normal;font-size:5.64444447px;line-height:1.25;font-family:'TeX Gyre Termes';-inkscape-font-specification:'TeX Gyre Termes';letter-spacing:0px;word-spacing:0px;text-anchor:start;fill:#000000;fill-opacity:1;fill-rule:evenodd;stroke:none;stroke-width:0.26458332;stroke-linecap:butt;stroke-linejoin:miter;stroke-miterlimit:10.43299961;stroke-dasharray:none;stroke-dashoffset:0;stroke-opacity:1"
       xml:space="preserve"><tspan
         style="font-style:normal;font-variant:normal;font-weight:normal;font-stretch:normal;font-size:5.64444447px;font-family:'TeX Gyre Termes';-inkscape-font-specification:'TeX Gyre Termes';stroke-width:0.26458332"
         y="211.49149"
         x="103.16435"
         id="tspan1039-7"
         sodipodi:role="line">strip number</tspan></text>
    <text
       xml:space="preserve"
       style="font-style:normal;font-variant:normal;font-weight:normal;font-stretch:normal;font-size:7.76111126px;line-height:1.25;font-family:'TeX Gyre Heros';-inkscape-font-specification:'TeX Gyre Heros, Normal';font-variant-ligatures:normal;font-variant-caps:normal;font-variant-numeric:normal;font-feature-settings:normal;text-align:start;letter-spacing:0px;word-spacing:0px;writing-mode:lr-tb;text-anchor:start;fill:#000000;fill-opacity:1;stroke:none;stroke-width:0.26458332"
       x="64.854317"
       y="161.95595"
       id="text30844"><tspan
         sodipodi:role="line"
         id="tspan30842"
         x="64.854317"
         y="161.95595"
         style="font-style:normal;font-variant:normal;font-weight:normal;font-stretch:normal;font-size:4.93888903px;font-family:'TeX Gyre Termes';-inkscape-font-specification:'TeX Gyre Termes';stroke-width:0.26458332">anode image</tspan></text>
    <text
       xml:space="preserve"
       style="font-style:normal;font-variant:normal;font-weight:normal;font-stretch:normal;font-size:7.76111126px;line-height:1.25;font-family:'TeX Gyre Heros';-inkscape-font-specification:'TeX Gyre Heros, Normal';font-variant-ligatures:normal;font-variant-caps:normal;font-variant-numeric:normal;font-feature-settings:normal;text-align:start;letter-spacing:0px;word-spacing:0px;writing-mode:lr-tb;text-anchor:start;fill:#000000;fill-opacity:1;stroke:none;stroke-width:0.26458332"
       x="104.85431"
       y="161.91536"
       id="text30848"><tspan
         sodipodi:role="line"
         id="tspan30846"
         x="104.85431"
         y="161.91536"
         style="font-style:normal;font-variant:normal;font-weight:normal;font-stretch:normal;font-size:4.93888903px;font-family:'TeX Gyre Termes';-inkscape-font-specification:'TeX Gyre Termes';stroke-width:0.26458332">cathode image</tspan></text>
  </g>
</svg>
